<svg width="32" height="32" viewBox="0 0 32 32" fill="none" xmlns="http://www.w3.org/2000/svg">
<path d="M25.3337 30.3333C23.4671 30.3333 21.7204 29.52 20.5204 28.0933C20.5071 28.0667 20.4271 28 20.3604 27.8933C20.2137 27.7466 20.0404 27.48 19.8937 27.2266C19.3071 26.28 18.9871 25.16 18.9871 23.9867C18.9871 22.04 19.8537 20.24 21.3604 19.04C22.4804 18.1467 23.8937 17.6533 25.3204 17.6533C26.8671 17.6533 28.2937 18.1867 29.4404 19.1867C29.6004 19.2934 29.7871 19.4933 29.9604 19.68C31.0404 20.8667 31.6404 22.3866 31.6404 23.9733C31.6404 25.1333 31.3204 26.2667 30.7204 27.24C30.4004 27.8 29.9604 28.3067 29.4537 28.7333C28.3737 29.7733 26.8937 30.3333 25.3337 30.3333ZM25.3337 19.6667C24.3471 19.6667 23.4137 20 22.6271 20.6266C21.6004 21.44 21.0004 22.68 21.0004 24C21.0004 24.7867 21.2137 25.56 21.6271 26.2266C21.7337 26.4133 21.8404 26.56 21.9604 26.7067C21.9871 26.7334 22.0671 26.8133 22.1337 26.92C22.8671 27.7867 24.0671 28.3467 25.3337 28.3467C26.3871 28.3467 27.4004 27.96 28.1737 27.2667C28.5204 26.9733 28.8137 26.6267 29.0271 26.2533C29.4537 25.5733 29.6671 24.8 29.6671 24.0133C29.6671 22.9333 29.2537 21.88 28.5071 21.0667C28.4137 20.96 28.307 20.8534 28.2004 20.7734C27.3604 20.0267 26.3871 19.6667 25.3337 19.6667Z" fill="#118259"/>
<path d="M27.3199 24.9733H23.3333C22.7866 24.9733 22.3333 24.52 22.3333 23.9733C22.3333 23.4267 22.7866 22.9733 23.3333 22.9733H27.3199C27.8666 22.9733 28.3199 23.4267 28.3199 23.9733C28.3199 24.52 27.8799 24.9733 27.3199 24.9733Z" fill="#118259"/>
<path d="M25.3333 27.0133C24.7866 27.0133 24.3333 26.56 24.3333 26.0133V22.0267C24.3333 21.48 24.7866 21.0267 25.3333 21.0267C25.8799 21.0267 26.3333 21.48 26.3333 22.0267V26.0133C26.3333 26.5733 25.8799 27.0133 25.3333 27.0133Z" fill="#118259"/>
<path d="M15.9997 17.7331C15.8264 17.7331 15.653 17.6932 15.493 17.5998L3.71969 10.7865C3.23969 10.5065 3.07971 9.89314 3.35971 9.41314C3.63971 8.93314 4.25302 8.77312 4.71969 9.05312L15.9864 15.5731L27.1864 9.09315C27.6664 8.81315 28.2797 8.98651 28.5464 9.45318C28.8264 9.93318 28.653 10.5465 28.1864 10.8265L16.493 17.5998C16.3464 17.6798 16.173 17.7331 15.9997 17.7331Z" fill="#118259"/>
<path d="M16 29.8131C15.4533 29.8131 15 29.3597 15 28.8131V16.7197C15 16.1731 15.4533 15.7197 16 15.7197C16.5467 15.7197 17 16.1731 17 16.7197V28.8131C17 29.3597 16.5467 29.8131 16 29.8131Z" fill="#118259"/>
<path d="M15.9998 30.3333C14.8264 30.3333 13.6531 30.0799 12.7464 29.5599L5.62642 25.6133C3.69309 24.5466 2.1731 21.9733 2.1731 19.7599V12.2132C2.1731 9.99988 3.69309 7.43995 5.62642 6.35995L12.7464 2.41325C14.5598 1.38658 17.4131 1.38658 19.2397 2.41325L26.3598 6.35995C28.2931 7.42661 29.8131 9.99988 29.8131 12.2132V19.7599C29.8131 19.8933 29.8131 19.9999 29.7864 20.1332C29.7197 20.4799 29.4664 20.7732 29.1331 20.8799C28.7998 20.9999 28.4264 20.9199 28.1464 20.6933C26.6131 19.3599 24.2398 19.3066 22.6264 20.5999C21.5998 21.4133 20.9998 22.6532 20.9998 23.9732C20.9998 24.7599 21.2131 25.5333 21.6264 26.2C21.7331 26.3866 21.8398 26.5333 21.9598 26.6799C22.1598 26.9066 22.2398 27.2133 22.1864 27.5066C22.1331 27.7999 21.9464 28.0533 21.6797 28.2L19.2397 29.5466C18.3331 30.0799 17.1731 30.3333 15.9998 30.3333ZM15.9998 3.66659C15.1731 3.66659 14.3331 3.83993 13.7331 4.17326L6.6131 8.11996C5.31976 8.82662 4.19975 10.7466 4.19975 12.2132V19.7599C4.19975 21.2266 5.3331 23.1466 6.6131 23.8533L13.7331 27.7999C14.9464 28.4799 17.0664 28.4799 18.2798 27.7999L19.7731 26.9732C19.2798 26.0799 19.0131 25.0399 19.0131 23.9732C19.0131 22.0266 19.8797 20.2266 21.3864 19.0266C23.1997 17.5733 25.7997 17.2666 27.8264 18.1332V12.1866C27.8264 10.7199 26.6931 8.79993 25.4131 8.09326L18.2931 4.14657C17.6664 3.8399 16.8264 3.66659 15.9998 3.66659Z" fill="#118259"/>
</svg>
