<svg width="32" height="32" viewBox="0 0 32 32" fill="none" xmlns="http://www.w3.org/2000/svg">
<path d="M16 21C13.24 21 11 18.76 11 16C11 13.24 13.24 11 16 11C18.76 11 21 13.24 21 16C21 18.76 18.76 21 16 21ZM16 13C14.3467 13 13 14.3467 13 16C13 17.6533 14.3467 19 16 19C17.6533 19 19 17.6533 19 16C19 14.3467 17.6533 13 16 13Z" fill="#118259"/>
<path d="M20.2801 29.5866C20.0001 29.5866 19.7201 29.5466 19.4401 29.48C18.6134 29.2533 17.9201 28.7333 17.4801 28L17.3201 27.7333C16.5334 26.3733 15.4534 26.3733 14.6667 27.7333L14.5201 27.9866C14.0801 28.7333 13.3867 29.2666 12.5601 29.48C11.7201 29.7066 10.8534 29.5866 10.1201 29.1466L7.82675 27.8266C7.01341 27.36 6.42675 26.6 6.17342 25.68C5.93341 24.76 6.05341 23.8133 6.52008 23C6.90675 22.32 7.01341 21.7066 6.78675 21.32C6.56008 20.9333 5.98675 20.7066 5.20008 20.7066C3.25341 20.7066 1.66675 19.12 1.66675 17.1733V14.8266C1.66675 12.88 3.25341 11.2933 5.20008 11.2933C5.98675 11.2933 6.56008 11.0666 6.78675 10.68C7.01341 10.2933 6.92008 9.67998 6.52008 8.99998C6.05341 8.18664 5.93341 7.22664 6.17342 6.31997C6.41341 5.39997 7.00008 4.63998 7.82675 4.17331L10.1334 2.85331C11.6401 1.95998 13.6267 2.47997 14.5334 4.01331L14.6934 4.27997C15.4801 5.63998 16.5601 5.63998 17.3467 4.27997L17.4934 4.02664C18.4001 2.47997 20.3867 1.95998 21.9067 2.86664L24.2001 4.18664C25.0134 4.65331 25.6001 5.41331 25.8534 6.33331C26.0934 7.25331 25.9734 8.19998 25.5067 9.01331C25.1201 9.69331 25.0134 10.3066 25.2401 10.6933C25.4667 11.08 26.0401 11.3066 26.8267 11.3066C28.7734 11.3066 30.3601 12.8933 30.3601 14.84V17.1866C30.3601 19.1333 28.7734 20.72 26.8267 20.72C26.0401 20.72 25.4667 20.9466 25.2401 21.3333C25.0134 21.72 25.1067 22.3333 25.5067 23.0133C25.9734 23.8266 26.1067 24.7866 25.8534 25.6933C25.6134 26.6133 25.0267 27.3733 24.2001 27.84L21.8934 29.16C21.3867 29.44 20.8401 29.5866 20.2801 29.5866ZM16.0001 24.6533C17.1867 24.6533 18.2934 25.4 19.0534 26.72L19.2001 26.9733C19.3601 27.2533 19.6267 27.4533 19.9467 27.5333C20.2667 27.6133 20.5867 27.5733 20.8534 27.4133L23.1601 26.08C23.5068 25.88 23.7734 25.5466 23.8801 25.1466C23.9867 24.7466 23.9334 24.3333 23.7334 23.9866C22.9734 22.68 22.8801 21.3333 23.4667 20.3066C24.0534 19.28 25.2667 18.6933 26.7867 18.6933C27.6401 18.6933 28.3201 18.0133 28.3201 17.16V14.8133C28.3201 13.9733 27.6401 13.28 26.7867 13.28C25.2667 13.28 24.0534 12.6933 23.4667 11.6666C22.8801 10.64 22.9734 9.29331 23.7334 7.98664C23.9334 7.63998 23.9867 7.22664 23.8801 6.82664C23.7734 6.42664 23.5201 6.10664 23.1734 5.89331L20.8667 4.57331C20.2934 4.22664 19.5334 4.42664 19.1867 5.01331L19.0401 5.26664C18.2801 6.58664 17.1734 7.33331 15.9867 7.33331C14.8001 7.33331 13.6934 6.58664 12.9334 5.26664L12.7867 4.99997C12.4534 4.43998 11.7067 4.23997 11.1334 4.57331L8.82675 5.90664C8.48008 6.10664 8.21341 6.43998 8.10675 6.83998C8.00008 7.23997 8.05341 7.65331 8.25342 7.99998C9.01341 9.30664 9.10675 10.6533 8.52008 11.68C7.93341 12.7066 6.72008 13.2933 5.20008 13.2933C4.34675 13.2933 3.66675 13.9733 3.66675 14.8266V17.1733C3.66675 18.0133 4.34675 18.7066 5.20008 18.7066C6.72008 18.7066 7.93341 19.2933 8.52008 20.32C9.10675 21.3466 9.01341 22.6933 8.25342 24C8.05341 24.3466 8.00008 24.76 8.10675 25.16C8.21341 25.56 8.46675 25.88 8.81342 26.0933L11.1201 27.4133C11.4001 27.5866 11.7334 27.6266 12.0401 27.5466C12.3601 27.4666 12.6267 27.2533 12.8001 26.9733L12.9467 26.72C13.7067 25.4133 14.8134 24.6533 16.0001 24.6533Z" fill="#118259"/>
</svg>
