<svg width="32" height="32" viewBox="0 0 32 32" fill="none" xmlns="http://www.w3.org/2000/svg">
<path d="M15.9999 17.7333C15.8266 17.7333 15.6533 17.6933 15.4933 17.6L3.71995 10.7866C3.25328 10.5066 3.07995 9.89331 3.35995 9.41331C3.63995 8.93331 4.25328 8.77331 4.73328 9.05331L15.9999 15.5733L27.1999 9.09331C27.6799 8.81331 28.2933 8.98664 28.5733 9.45331C28.8533 9.93331 28.6799 10.5466 28.2133 10.8266L16.5199 17.6C16.3466 17.68 16.1733 17.7333 15.9999 17.7333Z" fill="#118259"/>
<path d="M16 29.8133C15.4533 29.8133 15 29.36 15 28.8133V16.72C15 16.1733 15.4533 15.72 16 15.72C16.5467 15.72 17 16.1733 17 16.72V28.8133C17 29.36 16.5467 29.8133 16 29.8133Z" fill="#118259"/>
<path d="M16.0001 30.3334C14.8268 30.3334 13.6668 30.08 12.7468 29.5734L5.62677 25.6134C3.69343 24.5467 2.18677 21.9734 2.18677 19.76V12.2267C2.18677 10.0134 3.69343 7.45335 5.62677 6.37335L12.7468 2.42669C14.5734 1.41335 17.4268 1.41335 19.2534 2.42669L26.3734 6.38669C28.3068 7.45335 29.8134 10.0267 29.8134 12.24V19.7734C29.8134 21.9867 28.3068 24.5467 26.3734 25.6267L19.2534 29.5734C18.3334 30.08 17.1734 30.3334 16.0001 30.3334ZM16.0001 3.66669C15.1601 3.66669 14.3334 3.84002 13.7201 4.17335L6.6001 8.13335C5.3201 8.84002 4.18677 10.76 4.18677 12.2267V19.76C4.18677 21.2267 5.3201 23.1467 6.6001 23.8667L13.7201 27.8267C14.9334 28.5067 17.0668 28.5067 18.2801 27.8267L25.4001 23.8667C26.6801 23.1467 27.8134 21.24 27.8134 19.76V12.2267C27.8134 10.76 26.6801 8.84002 25.4001 8.12002L18.2801 4.16002C17.6668 3.84002 16.8401 3.66669 16.0001 3.66669Z" fill="#118259"/>
</svg>
