<svg width="32" height="32" viewBox="0 0 32 32" fill="none" xmlns="http://www.w3.org/2000/svg">
<path d="M25.3335 30.3332C23.1735 30.3332 21.1335 29.2132 19.9868 27.3732C19.3735 26.4266 19.0268 25.2932 19.0002 24.1332C18.9602 22.1865 19.7868 20.3732 21.2668 19.1465C22.3735 18.2265 23.7602 17.7065 25.1869 17.6665C26.9202 17.6532 28.4802 18.2532 29.7068 19.4265C30.9335 20.5999 31.6268 22.1732 31.6535 23.8666C31.6802 25.0266 31.3868 26.1599 30.8002 27.1599C30.4802 27.7199 30.0668 28.2399 29.5735 28.6799C28.4802 29.7066 27.0135 30.3065 25.4535 30.3332C25.4268 30.3332 25.3868 30.3332 25.3335 30.3332ZM25.3335 19.6665C25.3068 19.6665 25.2668 19.6665 25.2402 19.6665C24.2535 19.6932 23.3202 20.0399 22.5468 20.6799C21.5335 21.5199 20.9735 22.7599 21.0002 24.0932C21.0135 24.8799 21.2535 25.6532 21.6668 26.3065C22.4802 27.6132 23.8935 28.4132 25.4135 28.3332C26.4668 28.3065 27.4669 27.9066 28.2269 27.1999C28.5735 26.8932 28.8535 26.5465 29.0668 26.1732C29.4668 25.4799 29.6668 24.7065 29.6535 23.9199C29.6268 22.7599 29.1602 21.6798 28.3202 20.8798C27.5202 20.0932 26.4535 19.6665 25.3335 19.6665Z" fill="#118259"/>
<path d="M24.5998 26.3332C24.3464 26.3332 24.1064 26.2399 23.9064 26.0532L22.5598 24.7733C22.1598 24.3866 22.1464 23.7599 22.5331 23.3599C22.9197 22.9599 23.5464 22.9466 23.9464 23.3332L24.5998 23.9599L26.6931 21.9333C27.0931 21.5466 27.7197 21.5599 28.1064 21.9599C28.4931 22.3599 28.4797 22.9866 28.0797 23.3733L25.2931 26.0666C25.0931 26.2399 24.8398 26.3332 24.5998 26.3332Z" fill="#118259"/>
<path d="M15.9997 17.7331C15.8264 17.7331 15.653 17.6932 15.493 17.5998L3.71972 10.7865C3.23972 10.5065 3.07969 9.89314 3.35969 9.41314C3.63969 8.93314 4.25305 8.77312 4.71972 9.05312L15.9864 15.5731L27.1864 9.09315C27.6664 8.81315 28.2797 8.98651 28.5464 9.45318C28.8264 9.93318 28.6531 10.5465 28.1864 10.8265L16.493 17.5998C16.3464 17.6798 16.173 17.7331 15.9997 17.7331Z" fill="#118259"/>
<path d="M16 29.8131C15.4533 29.8131 15 29.3597 15 28.8131V16.7197C15 16.1731 15.4533 15.7197 16 15.7197C16.5467 15.7197 17 16.1731 17 16.7197V28.8131C17 29.3597 16.5467 29.8131 16 29.8131Z" fill="#118259"/>
<path d="M15.9998 30.3333C14.8264 30.3333 13.6531 30.0799 12.7464 29.5599L5.62642 25.6133C3.69309 24.5466 2.1731 21.9733 2.1731 19.7599V12.2132C2.1731 9.99988 3.69309 7.43995 5.62642 6.35995L12.7464 2.41325C14.5598 1.38658 17.4131 1.38658 19.2397 2.41325L26.3597 6.35995C28.2931 7.42661 29.8131 9.99988 29.8131 12.2132V19.7599C29.8131 19.8933 29.8131 19.9999 29.7864 20.1332C29.7197 20.4799 29.4664 20.7732 29.1331 20.8799C28.7998 20.9999 28.4264 20.9199 28.1464 20.6933C26.6131 19.3599 24.2398 19.3066 22.6264 20.5999C21.5998 21.4133 20.9998 22.6532 20.9998 23.9732C20.9998 24.7599 21.2131 25.5333 21.6264 26.2C21.7331 26.3866 21.8398 26.5333 21.9598 26.6799C22.1598 26.9066 22.2398 27.2133 22.1864 27.5066C22.1331 27.7999 21.9464 28.0533 21.6798 28.2L19.2397 29.5466C18.3331 30.0799 17.1731 30.3333 15.9998 30.3333ZM15.9998 3.66659C15.1731 3.66659 14.3331 3.83993 13.7331 4.17326L6.61308 8.11996C5.31974 8.82662 4.19975 10.7466 4.19975 12.2132V19.7599C4.19975 21.2266 5.33308 23.1466 6.61308 23.8533L13.7331 27.7999C14.9464 28.4799 17.0664 28.4799 18.2797 27.7999L19.7731 26.9732C19.2797 26.0799 19.0131 25.0399 19.0131 23.9732C19.0131 22.0266 19.8798 20.2266 21.3864 19.0266C23.1998 17.5733 25.7864 17.2666 27.8264 18.1332V12.1866C27.8264 10.7199 26.6931 8.79993 25.4131 8.09326L18.2931 4.14657C17.6664 3.8399 16.8264 3.66659 15.9998 3.66659Z" fill="#118259"/>
</svg>
