<svg width="32" height="32" viewBox="0 0 32 32" fill="none" xmlns="http://www.w3.org/2000/svg">
<path d="M26.36 15H20.9733C18.2933 15 17 13.8134 17 11.36V5.30669C17 2.85335 18.3067 1.66669 20.9733 1.66669H26.36C29.04 1.66669 30.3333 2.85335 30.3333 5.30669V11.3467C30.3333 13.8134 29.0267 15 26.36 15ZM20.9733 3.66669C19.1867 3.66669 19 4.17335 19 5.30669V11.3467C19 12.4934 19.1867 12.9867 20.9733 12.9867H26.36C28.1467 12.9867 28.3333 12.48 28.3333 11.3467V5.30669C28.3333 4.16002 28.1467 3.66669 26.36 3.66669H20.9733Z" fill="#118259"/>
<path d="M26.36 30.3333H20.9733C18.2933 30.3333 17 29.0267 17 26.36V20.9733C17 18.2933 18.3067 17 20.9733 17H26.36C29.04 17 30.3333 18.3067 30.3333 20.9733V26.36C30.3333 29.0267 29.0267 30.3333 26.36 30.3333ZM20.9733 19C19.4 19 19 19.4 19 20.9733V26.36C19 27.9333 19.4 28.3333 20.9733 28.3333H26.36C27.9333 28.3333 28.3333 27.9333 28.3333 26.36V20.9733C28.3333 19.4 27.9333 19 26.36 19H20.9733Z" fill="#118259"/>
<path d="M11.0266 15H5.63996C2.95996 15 1.66663 13.8134 1.66663 11.36V5.30669C1.66663 2.85335 2.97329 1.66669 5.63996 1.66669H11.0266C13.7066 1.66669 15 2.85335 15 5.30669V11.3467C15 13.8134 13.6933 15 11.0266 15ZM5.63996 3.66669C3.85329 3.66669 3.66663 4.17335 3.66663 5.30669V11.3467C3.66663 12.4934 3.85329 12.9867 5.63996 12.9867H11.0266C12.8133 12.9867 13 12.48 13 11.3467V5.30669C13 4.16002 12.8133 3.66669 11.0266 3.66669H5.63996Z" fill="#118259"/>
<path d="M11.0266 30.3333H5.63996C2.95996 30.3333 1.66663 29.0267 1.66663 26.36V20.9733C1.66663 18.2933 2.97329 17 5.63996 17H11.0266C13.7066 17 15 18.3067 15 20.9733V26.36C15 29.0267 13.6933 30.3333 11.0266 30.3333ZM5.63996 19C4.06663 19 3.66663 19.4 3.66663 20.9733V26.36C3.66663 27.9333 4.06663 28.3333 5.63996 28.3333H11.0266C12.6 28.3333 13 27.9333 13 26.36V20.9733C13 19.4 12.6 19 11.0266 19H5.63996Z" fill="#118259"/>
</svg>
