<svg width="32" height="32" viewBox="0 0 32 32" fill="none" xmlns="http://www.w3.org/2000/svg">
<path d="M20.0001 30.3333H12.0001C10.2401 30.3333 8.77345 30.16 7.53345 29.7867C7.08011 29.6534 6.78678 29.2133 6.81345 28.7467C7.14678 24.76 11.1868 21.6266 16.0001 21.6266C20.8134 21.6266 24.8401 24.7467 25.1868 28.7467C25.2268 29.2267 24.9334 29.6534 24.4668 29.7867C23.2268 30.16 21.7601 30.3333 20.0001 30.3333ZM8.96011 28.08C9.84011 28.2533 10.8401 28.3333 12.0001 28.3333H20.0001C21.1601 28.3333 22.1601 28.2533 23.0401 28.08C22.3334 25.52 19.4134 23.6266 16.0001 23.6266C12.5868 23.6266 9.66678 25.52 8.96011 28.08Z" fill="#118259"/>
<path d="M20.0001 2.66666H12.0001C5.33341 2.66666 2.66675 5.33332 2.66675 12V20C2.66675 25.04 4.18675 27.8 7.81342 28.8267C8.10675 25.36 11.6667 22.6266 16.0001 22.6266C20.3334 22.6266 23.8934 25.36 24.1867 28.8267C27.8134 27.8 29.3334 25.04 29.3334 20V12C29.3334 5.33332 26.6667 2.66666 20.0001 2.66666ZM16.0001 18.8933C13.3601 18.8933 11.2267 16.7467 11.2267 14.1067C11.2267 11.4667 13.3601 9.33332 16.0001 9.33332C18.6401 9.33332 20.7734 11.4667 20.7734 14.1067C20.7734 16.7467 18.6401 18.8933 16.0001 18.8933Z" stroke="#118259" stroke-width="1.5" stroke-linecap="round" stroke-linejoin="round"/>
<path d="M15.9999 19.8933C12.8132 19.8933 10.2266 17.2934 10.2266 14.1067C10.2266 10.92 12.8132 8.33334 15.9999 8.33334C19.1866 8.33334 21.7732 10.92 21.7732 14.1067C21.7732 17.2934 19.1866 19.8933 15.9999 19.8933ZM15.9999 10.3333C13.9199 10.3333 12.2266 12.0267 12.2266 14.1067C12.2266 16.2 13.9199 17.8933 15.9999 17.8933C18.0799 17.8933 19.7732 16.2 19.7732 14.1067C19.7732 12.0267 18.0799 10.3333 15.9999 10.3333Z" fill="#118259"/>
</svg>
